<?xml version="1.0" encoding="UTF-8" standalone="no"?>
<!-- Created with Inkscape (http://www.inkscape.org/) -->

<svg
   xmlns:dc="http://purl.org/dc/elements/1.1/"
   xmlns:cc="http://creativecommons.org/ns#"
   xmlns:rdf="http://www.w3.org/1999/02/22-rdf-syntax-ns#"
   xmlns:svg="http://www.w3.org/2000/svg"
   xmlns="http://www.w3.org/2000/svg"
   xmlns:sodipodi="http://sodipodi.sourceforge.net/DTD/sodipodi-0.dtd"
   xmlns:inkscape="http://www.inkscape.org/namespaces/inkscape"
   width="50"
   height="50"
   viewBox="0 0 13.229166 13.229167"
   version="1.1"
   id="svg8"
   inkscape:version="0.92.5 (2060ec1f9f, 2020-04-08)"
   sodipodi:docname="chevron.svg">
  <defs
     id="defs2" />
  <sodipodi:namedview
     id="base"
     pagecolor="#ffffff"
     bordercolor="#666666"
     borderopacity="1.0"
     inkscape:pageopacity="0.0"
     inkscape:pageshadow="2"
     inkscape:zoom="15.839192"
     inkscape:cx="14.443002"
     inkscape:cy="24.669357"
     inkscape:document-units="mm"
     inkscape:current-layer="layer1"
     showgrid="false"
     units="px"
     inkscape:window-width="1920"
     inkscape:window-height="1103"
     inkscape:window-x="1920"
     inkscape:window-y="0"
     inkscape:window-maximized="1" />
  <metadata
     id="metadata5">
    <rdf:RDF>
      <cc:Work
         rdf:about="">
        <dc:format>image/svg+xml</dc:format>
        <dc:type
           rdf:resource="http://purl.org/dc/dcmitype/StillImage" />
        <dc:title></dc:title>
      </cc:Work>
    </rdf:RDF>
  </metadata>
  <g
     inkscape:label="Calque 1"
     inkscape:groupmode="layer"
     id="layer1"
     transform="translate(0,-283.77082)">
    <path
       class="svg-path"
       style="fill-opacity:1;stroke:none"
       d="M 4.2402344 10.351562 L 2.1210938 12.470703 L 0 14.591797 L 2.0351562 16.626953 L 4.0703125 18.662109 L 6.1914062 16.541016 L 8.3105469 14.421875 L 6.2753906 12.386719 L 4.2402344 10.351562 z M 45.759766 10.380859 L 33.244141 22.894531 L 24.972656 31.167969 L 22.154297 28.349609 L 15.095703 21.292969 L 12.974609 23.412109 L 10.855469 25.533203 L 17.914062 32.591797 L 20.730469 35.408203 L 22.851562 37.529297 L 24.970703 39.648438 L 37.486328 27.134766 L 50 14.621094 L 47.878906 12.5 L 45.759766 10.380859 z M 9.6542969 15.849609 L 7.5332031 17.970703 L 5.4121094 20.089844 L 7.4472656 22.125 L 9.4824219 24.160156 L 11.603516 22.041016 L 13.724609 19.919922 L 11.689453 17.884766 L 9.6542969 15.849609 z "
       transform="matrix(0.26458333,0,0,0.26458333,0,283.77082)"
       id="rect831" />
  </g>
</svg>
